<?xml version="1.0" encoding="utf-8"?>
<!-- Generator: Adobe Illustrator 28.1.0, SVG Export Plug-In . SVG Version: 6.00 Build 0)  -->
<svg version="1.1" id="Capa_1" xmlns="http://www.w3.org/2000/svg" xmlns:xlink="http://www.w3.org/1999/xlink" x="0px" y="0px"
	 viewBox="0 0 639.9 223.8" style="enable-background:new 0 0 639.9 223.8;" xml:space="preserve">
<style type="text/css">
	.st0{fill:#003348;}
	.st1{fill:#006FB8;}
	.st2{fill:#DD1C1E;}
	.st3{fill:#EF8984;}
	.st4{fill:#338049;}
	.st5{fill:#FFB400;}
	.st6{fill:#F9F3D8;}
</style>
<g id="Group_1177" transform="translate(-2466.992 803)">
	<rect id="Rectangle_844" x="2467" y="-784.3" class="st0" width="639.9" height="205"/>
	<rect id="Rectangle_845" x="2467" y="-803" class="st1" width="128" height="18.7"/>
	<rect id="Rectangle_846" x="2595" y="-803" class="st2" width="128" height="18.7"/>
	<rect id="Rectangle_847" x="2723" y="-803" class="st3" width="128" height="18.7"/>
	<rect id="Rectangle_848" x="2850.9" y="-803" class="st4" width="128" height="18.7"/>
	<rect id="Rectangle_849" x="2978.9" y="-803" class="st5" width="128" height="18.7"/>
	<path id="Path_6943" class="st6" d="M2553.4-750.9l9,18.7l10.3-18.7h22.9l-21.5,33.6l26.1,44.6h-35.4l-11.4-24.5l-13.7,24.5h-22.7
		l23.8-38.4l-22.9-39.8H2553.4z"/>
	<path id="Path_6944" class="st6" d="M2630.9-750.9l12.1,47.1l13.6-47.1h21.5l-26.6,78.2h-28.3l-26.9-78.2H2630.9z"/>
	<rect id="Rectangle_850" x="2678.7" y="-750.9" class="st6" width="27.3" height="78.2"/>
	<path id="Path_6945" class="st6" d="M2744.8-750.2v8.2h-13.7v6.3h11.1v8.2h-11.1v13h-12.5v-35.8L2744.8-750.2z"/>
	<path id="Path_6946" class="st6" d="M2761.7-728.9v6.6h14.4v7.8h-26.9v-35.8h25.9v7.9h-13.4v5.5h11.3v7.9L2761.7-728.9z"/>
	<path id="Path_6947" class="st6" d="M2797.2-723.1c0-3-4.2-3.4-7.8-4.8c-3.8-1.6-8.4-3.5-8.4-10.9c0-6.3,5.5-12,15-12
		c10.1,0,14.9,4.8,14.1,12.6h-6.1c-0.7-2.8-2.6-4.8-5.5-4.8c-3.1,0-4.1,1.6-4.1,3c0,2.5,3.2,2.6,6.2,3.8c4.4,1.5,10.5,3.1,10.5,10.9
		c0,7.2-6.3,11.9-15.5,11.9c-10.4,0-15.1-4.8-15.1-12.5h5c0.9,3.6,3.5,5.3,7.6,5.3C2796-720.6,2797.2-721.8,2797.2-723.1"/>
	<path id="Path_6948" class="st6" d="M2845.8-750.2v8.5h-10.3v27.3H2823v-27.3h-10.3v-8.5H2845.8z"/>
	<rect id="Rectangle_851" x="2849.8" y="-750.2" class="st6" width="12.5" height="35.8"/>
	<path id="Path_6949" class="st6" d="M2882.2-750.2l5.5,21.6l6.2-21.6h9.9l-12.2,35.8h-13l-12.3-35.8H2882.2z"/>
	<path id="Path_6950" class="st6" d="M2900.1-714.4l13.4-35.8h13.1l11.7,35.8h-14.5l-1.8-6.8h-10.6l-2.1,6.8H2900.1z M2920.3-727.6
		l-3.2-12.2l-3.8,12.2H2920.3z"/>
	<path id="Path_6951" class="st6" d="M2954.8-750.2v27.3h14.1v8.5h-26.6v-35.8L2954.8-750.2z"/>
	<path id="Path_6952" class="st6" d="M3002.4-750.2c13.2,0,20.5,6.6,20.5,17.6c0,13.6-9.7,18.2-20.5,18.2h-13.9v-35.8L3002.4-750.2z
		 M3001-742v19.3h1.9c5.4,0,6.6-4.7,6.6-9.9c0-6.4-2.5-9.5-6.6-9.5L3001-742z"/>
	<path id="Path_6953" class="st6" d="M3040.8-728.9v6.6h14.4v7.8h-26.9v-35.8h25.9v7.9h-13.4v5.5h11.3v7.9L3040.8-728.9z"/>
	<path id="Path_6954" class="st6" d="M2730.4-704.1c9,0,11.9,6,11.2,11.6h-5.1c-0.2-2.1-2.2-3.7-4.3-3.5c-3.8,0-5.8,2.8-5.8,7.6
		c0,5.6,2.5,8,6.2,8c2.5,0,5.2-1.1,5.7-4.3h4c0,6-2.8,11.9-11.8,11.9c-9.2,0-15.4-5.2-15.4-15.6
		C2715.1-698.1,2721.1-704.1,2730.4-704.1"/>
	<path id="Path_6955" class="st6" d="M2760.7-704.1c8.4,0,15.5,5.3,15.5,15.5c0,9.7-5.2,15.9-15.5,15.9c-9.9,0-15.7-5.7-15.7-15.9
		C2745-697.8,2750.9-704.1,2760.7-704.1 M2761.8-695.7c-3.7,0-5.6,2.7-5.6,7.1c0,5.7,2.2,8.2,5.5,8.2c2.9,0,5.7-2.2,5.7-8.1
		C2767.4-692.7,2765.2-695.7,2761.8-695.7"/>
	<path id="Path_6956" class="st6" d="M2792.1-703.5l6.7,15.5l7.4-15.5h8.7v30h-7.6v-16.3l-7.7,16.3h-4.4l-6.8-16v16h-7.6v-30H2792.1
		z"/>
	<path id="Path_6957" class="st6" d="M2820.8-703.5h11.3v14.9c0,6.5,1.1,8.3,4.3,8.3c2.9,0,4.1-1.4,4.1-7.8v-15.4h7.6v15.9
		c0,9-3.6,15-12.9,15c-12.1,0-14.4-5.9-14.4-14.4L2820.8-703.5z"/>
	<path id="Path_6958" class="st6" d="M2863.9-703.5l10.1,14v-14h8.2v30h-7.7l-12.3-16.4v16.4h-8.1v-30H2863.9z"/>
	<rect id="Rectangle_852" x="2888.4" y="-703.5" class="st6" width="10.5" height="30"/>
	<path id="Path_6959" class="st6" d="M2916.8-703.5c11.1,0,17.2,5.6,17.2,14.8c0,11.4-8.2,15.2-17.2,15.2h-11.7v-30H2916.8z
		 M2915.6-696.6v16.2h1.6c4.5,0,5.6-3.9,5.6-8.3c0-5.4-2.1-7.9-5.6-7.9L2915.6-696.6z"/>
	<path id="Path_6960" class="st6" d="M2934.5-673.5l11.2-30h11l9.8,30h-12.1l-1.5-5.7h-8.9l-1.8,5.7H2934.5z M2951.5-684.6
		l-2.7-10.2l-3.2,10.2H2951.5z"/>
	<path id="Path_6961" class="st6" d="M2981.6-703.5c11.1,0,17.2,5.6,17.2,14.8c0,11.4-8.2,15.2-17.2,15.2h-11.7v-30H2981.6z
		 M2980.4-696.6v16.2h1.6c4.5,0,5.6-3.9,5.6-8.3c0-5.4-2.1-7.9-5.6-7.9L2980.4-696.6z"/>
	<path id="Path_6962" class="st6" d="M3013.8-685.6v5.6h12.1v6.6h-22.5v-30h21.7v6.6h-11.2v4.6h9.5v6.6L3013.8-685.6z"/>
	<path id="Path_6963" class="st6" d="M3043.5-680.8c0-2.5-3.5-2.8-6.5-4c-3.2-1.3-7-2.9-7-9.2c0-5.3,4.6-10.1,12.6-10.1
		c8.4,0,12.5,4,11.8,10.6h-5.2c-0.6-2.4-2.2-4-4.6-4c-2.6,0-3.5,1.3-3.5,2.5c0,2.1,2.7,2.2,5.2,3.2c3.7,1.2,8.8,2.6,8.8,9.2
		c0,6-5.3,10-13,10c-8.7,0-12.6-4-12.6-10.5h4.2c0.7,3.1,2.9,4.5,6.4,4.5C3042.5-678.7,3043.5-679.7,3043.5-680.8"/>
	<path id="Path_6964" class="st6" d="M2534.2-634v9.2h19.9v10.8h-37.2v-49.5h35.8v10.9h-18.5v7.7h15.6v10.9L2534.2-634z"/>
	<path id="Path_6965" class="st6" d="M2580.9-663.6l5.7,11.9l6.5-11.9h14.5l-13.6,21.3l16.5,28.2h-22.4l-7.2-15.5l-8.7,15.5h-14.4
		l15-24.3l-14.5-25.2L2580.9-663.6z"/>
	<path id="Path_6966" class="st6" d="M2656.3-663.6v11.8H2642v37.7h-17.2v-37.7h-14.3v-11.8L2656.3-663.6z"/>
	<path id="Path_6967" class="st6" d="M2685.8-663.6c12,0,19.2,4.2,19.2,13.3c0,7.2-4.2,10.9-10.8,12.5c7.1,0.4,10,3.7,10,11.2v2.1
		c0,5.7,0.8,6.8,3,7.6v2.2c-1.6,0.7-6.3,1.2-8.9,1.2c-8.7,0-11.4-2.7-11.4-12.4c0-4.5-0.7-6.4-4.5-6.4h-3.3v18.1h-17.3v-49.5H2685.8
		z M2679.2-652.2v10.6h2.9c4.6,0,6.5-1.9,6.5-5.3c0-3.6-2.3-5.2-6.1-5.2L2679.2-652.2z"/>
	<path id="Path_6968" class="st6" d="M2709.5-614l18.5-49.5h18.1l16.2,49.5h-20l-2.5-9.4h-14.7l-2.9,9.4H2709.5z M2737.5-632.3
		l-4.4-16.8l-5.2,16.8H2737.5z"/>
	<path id="Path_6969" class="st6" d="M2784-663.6l16.7,23.1v-23.1h13.5v49.5h-12.6l-20.3-27.1v27.1h-13.4v-49.5H2784z"/>
	<path id="Path_6970" class="st6" d="M2827.2-630.6c0.4,3.5,2.1,5.2,5,5.2c3,0,4-2.5,4-7.6v-30.6h17.2v32.1
		c0,10.4-4.4,18.8-16.7,18.8c-13.9,0-16.3-7.8-16.3-17.9H2827.2z"/>
	<path id="Path_6971" class="st6" d="M2880.9-634v9.2h19.9v10.8h-37.2v-49.5h35.8v10.9h-18.5v7.7h15.6v10.9L2880.9-634z"/>
	<path id="Path_6972" class="st6" d="M2933.1-663.6c12,0,19.2,4.2,19.2,13.3c0,7.2-4.2,10.9-10.8,12.5c7.1,0.4,10,3.7,10,11.2v2.1
		c0,5.7,0.8,6.8,3,7.6v2.2c-1.6,0.7-6.3,1.2-8.9,1.2c-8.7,0-11.4-2.7-11.4-12.4c0-4.5-0.7-6.4-4.5-6.4h-3.3v18.1h-17.3v-49.5H2933.1
		z M2926.5-652.2v10.6h2.9c4.6,0,6.5-1.9,6.5-5.3c0-3.6-2.3-5.2-6.1-5.2L2926.5-652.2z"/>
	<path id="Path_6973" class="st6" d="M2956.8-614l18.5-49.5h18.1l16.2,49.5h-20l-2.5-9.4h-14.7l-2.9,9.4H2956.8z M2984.7-632.3
		l-4.4-16.8l-5.2,16.8H2984.7z"/>
	<path id="Path_6974" class="st6" d="M3035.9-626.1c0-4.1-5.8-4.7-10.7-6.6c-5.2-2.1-11.6-4.9-11.6-15.1c0-8.8,7.6-16.6,20.7-16.6
		c13.9,0,20.6,6.6,19.5,17.5h-8.5c-0.9-3.9-3.6-6.6-7.6-6.6c-4.3,0-5.7,2.1-5.7,4.2c0,3.5,4.4,3.6,8.6,5.2
		c6.1,2.1,14.5,4.3,14.5,15.1c0,9.9-8.7,16.4-21.5,16.4c-14.4,0-20.8-6.6-20.8-17.3h6.9c1.2,5,4.9,7.4,10.6,7.4
		C3034.3-622.6,3035.9-624.2,3035.9-626.1"/>
	<path id="Path_6975" class="st6" d="M3059-621.9l1.2,3.5l1.3-3.5h0.9v4.4h-0.7v-3.2l-1.2,3.2h-0.6l-1.2-3.2v3.2h-0.7v-4.4
		L3059-621.9z"/>
	<path id="Path_6976" class="st6" d="M3065.2-621.8c0.2,0.1,0.4,0.2,0.5,0.3c0.1,0.1,0.2,0.3,0.3,0.4c0,0.1,0.1,0.3,0.1,0.4
		c0,0.2,0,0.5-0.2,0.7c-0.1,0.2-0.3,0.4-0.5,0.5l0.9,1.9h-0.8l-0.8-1.7c0,0-0.1,0-0.1,0s-0.1,0-0.1,0h-0.8v1.7h-0.7v-4.4h1.5
		C3064.6-621.9,3064.9-621.9,3065.2-621.8 M3064.8-620c0.1,0,0.2-0.1,0.3-0.1c0.1-0.1,0.1-0.1,0.1-0.2c0-0.1,0-0.2,0-0.3
		c0-0.1,0-0.2,0-0.3c0-0.1-0.1-0.2-0.2-0.2c-0.1-0.1-0.2-0.1-0.3-0.1c-0.1,0-0.3-0.1-0.4,0h-0.7v1.4h0.8
		C3064.5-619.9,3064.7-619.9,3064.8-620"/>
	<path id="Path_6977" class="st6" d="M3062.1-624.5c2.7,0,4.9,2.2,4.9,4.9c0,2.7-2.2,4.9-4.9,4.9c-2.7,0-4.9-2.2-4.9-4.9
		c0,0,0,0,0,0C3057.2-622.3,3059.4-624.5,3062.1-624.5 M3062.1-625.2c-3.1,0-5.6,2.5-5.6,5.7s2.5,5.6,5.7,5.6s5.6-2.5,5.6-5.7
		C3067.7-622.7,3065.2-625.2,3062.1-625.2"/>
</g>
</svg>
